<svg xmlns="http://www.w3.org/2000/svg" xmlns:xlink="http://www.w3.org/1999/xlink" width="500" zoomAndPan="magnify" viewBox="0 0 375 374.999991" height="500" preserveAspectRatio="xMidYMid meet" version="1.0"><defs><clipPath id="dca9692fc4"><path d="M 101 42.4375 L 274 42.4375 L 274 156 L 101 156 Z M 101 42.4375 " clip-rule="nonzero"/></clipPath><clipPath id="1f375baf6f"><path d="M 42.4375 101 L 156 101 L 156 274 L 42.4375 274 Z M 42.4375 101 " clip-rule="nonzero"/></clipPath><clipPath id="b1dc0a7af6"><path d="M 101 219 L 274 219 L 274 332.558594 L 101 332.558594 Z M 101 219 " clip-rule="nonzero"/></clipPath><clipPath id="ff42a574fa"><path d="M 219 101 L 332.558594 101 L 332.558594 274 L 219 274 Z M 219 101 " clip-rule="nonzero"/></clipPath></defs><g clip-path="url(#dca9692fc4)"><path fill="#ff4d00" d="M 248.328125 42.53125 C 237.847656 43.371094 228.019531 53.011719 226.992188 63.492188 C 226.804688 64.992188 226.804688 66.582031 226.992188 67.984375 C 227.738281 76.128906 224.652344 84.175781 218.757812 89.886719 L 217.445312 91.101562 C 214.636719 93.816406 208.742188 95.5 202.941406 96.53125 C 192.738281 98.308594 182.257812 98.308594 172.054688 96.53125 C 166.253906 95.5 160.359375 93.816406 157.550781 91.101562 L 156.332031 89.886719 C 150.4375 84.175781 147.347656 76.128906 148.097656 67.984375 C 148.191406 66.488281 148.191406 64.992188 148.097656 63.492188 C 147.066406 53.011719 137.242188 43.371094 126.664062 42.53125 C 112.253906 41.40625 100.367188 53.292969 101.492188 67.707031 C 102.425781 79.03125 111.503906 88.199219 122.828125 89.136719 C 124.324219 89.230469 125.824219 89.230469 127.226562 89.136719 C 135.554688 88.292969 143.886719 90.820312 149.875 96.71875 L 151 97.839844 C 157.457031 104.109375 160.265625 113.28125 158.859375 122.171875 C 158.484375 124.324219 158.390625 126.570312 158.578125 128.910156 C 159.609375 143.136719 171.214844 154.742188 185.4375 155.679688 C 202.378906 156.800781 216.507812 143.417969 216.507812 126.757812 C 216.507812 125.074219 216.324219 123.390625 216.042969 121.800781 C 214.542969 113 217.632812 104.015625 224.089844 97.746094 L 225.121094 96.71875 C 231.109375 90.914062 239.4375 88.292969 247.769531 89.136719 C 249.171875 89.324219 250.667969 89.324219 252.167969 89.136719 C 263.492188 88.199219 272.570312 79.03125 273.503906 67.707031 C 274.628906 53.292969 262.742188 41.40625 248.328125 42.53125 Z M 248.328125 42.53125 " fill-opacity="1" fill-rule="nonzero"/></g><g clip-path="url(#1f375baf6f)"><path fill="#ff4d00" d="M 42.53125 126.664062 C 43.371094 137.148438 53.011719 146.972656 63.496094 148.003906 C 64.992188 148.191406 66.582031 148.191406 67.988281 148.003906 C 76.128906 147.253906 84.175781 150.34375 89.886719 156.238281 L 91.101562 157.550781 C 93.816406 160.355469 95.5 166.253906 96.53125 172.054688 C 98.308594 182.257812 98.308594 192.738281 96.53125 202.941406 C 95.5 208.742188 93.816406 214.636719 91.101562 217.445312 L 89.886719 218.664062 C 84.175781 224.558594 76.128906 227.644531 67.988281 226.898438 C 66.488281 226.804688 64.992188 226.804688 63.496094 226.898438 C 53.011719 227.925781 43.371094 237.753906 42.53125 248.328125 C 41.40625 262.742188 53.292969 274.722656 67.800781 273.503906 C 79.125 272.570312 88.292969 263.492188 89.230469 252.167969 C 89.324219 250.667969 89.324219 249.171875 89.230469 247.769531 C 88.386719 239.4375 90.914062 231.109375 96.8125 225.121094 L 97.933594 223.996094 C 104.203125 217.539062 113.375 214.730469 122.265625 216.136719 C 124.417969 216.507812 126.664062 216.601562 129.003906 216.414062 C 143.230469 215.386719 154.835938 203.78125 155.773438 189.554688 C 156.894531 172.617188 143.511719 158.484375 126.851562 158.484375 C 125.167969 158.484375 123.484375 158.671875 121.894531 158.953125 C 113.09375 160.449219 104.109375 157.363281 97.839844 150.90625 L 96.8125 149.875 C 91.007812 143.886719 88.386719 135.554688 89.230469 127.226562 C 89.417969 125.824219 89.417969 124.324219 89.230469 122.828125 C 88.203125 111.503906 79.03125 102.332031 67.707031 101.492188 C 53.292969 100.367188 41.40625 112.253906 42.53125 126.664062 Z M 42.53125 126.664062 " fill-opacity="1" fill-rule="nonzero"/></g><g clip-path="url(#b1dc0a7af6)"><path fill="#ff4d00" d="M 126.664062 332.464844 C 137.148438 331.621094 146.972656 321.980469 148.003906 311.5 C 148.191406 310.003906 148.191406 308.414062 148.003906 307.007812 C 147.253906 298.867188 150.34375 290.816406 156.238281 285.109375 L 157.457031 283.890625 C 160.265625 281.179688 166.160156 279.492188 171.960938 278.464844 C 182.164062 276.6875 192.644531 276.6875 202.847656 278.464844 C 208.648438 279.492188 214.542969 281.179688 217.351562 283.890625 L 218.570312 285.109375 C 224.464844 290.816406 227.550781 298.867188 226.804688 307.007812 C 226.710938 308.507812 226.710938 310.003906 226.804688 311.5 C 227.835938 321.980469 237.660156 331.621094 248.140625 332.464844 C 262.554688 333.585938 274.535156 321.703125 273.316406 307.195312 C 272.382812 295.871094 263.304688 286.699219 251.980469 285.765625 C 250.480469 285.671875 248.984375 285.671875 247.582031 285.765625 C 239.25 286.605469 230.921875 284.078125 224.933594 278.183594 L 223.808594 277.0625 C 217.351562 270.789062 214.542969 261.617188 215.949219 252.726562 C 216.320312 250.574219 216.414062 248.328125 216.230469 245.988281 C 215.199219 231.765625 203.59375 220.160156 189.367188 219.222656 C 172.429688 218.101562 158.296875 231.484375 158.296875 248.140625 C 158.296875 249.828125 158.484375 251.511719 158.765625 253.101562 C 160.265625 261.898438 157.175781 270.882812 150.71875 277.15625 L 149.6875 278.183594 C 143.699219 283.984375 135.371094 286.605469 127.039062 285.765625 C 125.636719 285.578125 124.140625 285.578125 122.640625 285.765625 C 111.316406 286.699219 102.238281 295.871094 101.304688 307.195312 C 100.367188 321.703125 112.253906 333.585938 126.664062 332.464844 Z M 126.664062 332.464844 " fill-opacity="1" fill-rule="nonzero"/></g><g clip-path="url(#ff42a574fa)"><path fill="#ff4d00" d="M 332.464844 248.328125 C 331.621094 237.847656 321.980469 228.019531 311.5 226.992188 C 310.003906 226.804688 308.414062 226.804688 307.007812 226.992188 C 298.867188 227.738281 290.816406 224.652344 285.109375 218.757812 L 283.890625 217.445312 C 281.179688 214.636719 279.492188 208.742188 278.464844 202.941406 C 276.6875 192.738281 276.6875 182.257812 278.464844 172.054688 C 279.492188 166.253906 281.179688 160.355469 283.890625 157.550781 L 285.109375 156.332031 C 290.816406 150.4375 298.867188 147.347656 307.007812 148.097656 C 308.507812 148.191406 310.003906 148.191406 311.5 148.097656 C 321.980469 147.066406 331.621094 137.242188 332.464844 126.757812 C 333.585938 112.347656 321.703125 100.367188 307.195312 101.585938 C 295.871094 102.519531 286.699219 111.597656 285.765625 122.921875 C 285.671875 124.417969 285.671875 125.917969 285.765625 127.320312 C 286.605469 135.648438 284.078125 143.980469 278.183594 149.96875 L 277.0625 151.09375 C 270.789062 157.550781 261.617188 160.355469 252.726562 158.953125 C 250.574219 158.578125 248.328125 158.484375 245.988281 158.671875 C 231.765625 159.703125 220.160156 171.308594 219.222656 185.53125 C 218.101562 202.472656 231.484375 216.601562 248.140625 216.601562 C 249.828125 216.601562 251.511719 216.414062 253.101562 216.136719 C 261.898438 214.636719 270.882812 217.726562 277.15625 224.183594 L 278.183594 225.214844 C 283.984375 231.203125 286.605469 239.53125 285.765625 247.859375 C 285.578125 249.265625 285.578125 250.761719 285.765625 252.261719 C 286.699219 263.582031 295.871094 272.660156 307.195312 273.597656 C 321.703125 274.628906 333.585938 262.742188 332.464844 248.328125 Z M 332.464844 248.328125 " fill-opacity="1" fill-rule="nonzero"/></g><path fill="#ff4d00" d="M 124.792969 143.511719 C 135.132812 143.511719 143.511719 135.132812 143.511719 124.792969 C 143.511719 114.457031 135.132812 106.078125 124.792969 106.078125 C 114.457031 106.078125 106.078125 114.457031 106.078125 124.792969 C 106.078125 135.132812 114.457031 143.511719 124.792969 143.511719 Z M 124.792969 143.511719 " fill-opacity="1" fill-rule="nonzero"/><path fill="#ff4d00" d="M 124.792969 268.917969 C 135.132812 268.917969 143.511719 260.539062 143.511719 250.203125 C 143.511719 239.863281 135.132812 231.484375 124.792969 231.484375 C 114.457031 231.484375 106.078125 239.863281 106.078125 250.203125 C 106.078125 260.539062 114.457031 268.917969 124.792969 268.917969 Z M 124.792969 268.917969 " fill-opacity="1" fill-rule="nonzero"/><path fill="#ff4d00" d="M 250.203125 268.917969 C 260.539062 268.917969 268.917969 260.539062 268.917969 250.203125 C 268.917969 239.863281 260.539062 231.484375 250.203125 231.484375 C 239.863281 231.484375 231.484375 239.863281 231.484375 250.203125 C 231.484375 260.539062 239.863281 268.917969 250.203125 268.917969 Z M 250.203125 268.917969 " fill-opacity="1" fill-rule="nonzero"/><path fill="#ff4d00" d="M 250.203125 143.511719 C 260.539062 143.511719 268.917969 135.132812 268.917969 124.792969 C 268.917969 114.457031 260.539062 106.078125 250.203125 106.078125 C 239.863281 106.078125 231.484375 114.457031 231.484375 124.792969 C 231.484375 135.132812 239.863281 143.511719 250.203125 143.511719 Z M 250.203125 143.511719 " fill-opacity="1" fill-rule="nonzero"/><path fill="#ff4d00" d="M 187.496094 206.214844 C 197.835938 206.214844 206.214844 197.835938 206.214844 187.496094 C 206.214844 177.160156 197.835938 168.78125 187.496094 168.78125 C 177.160156 168.78125 168.78125 177.160156 168.78125 187.496094 C 168.78125 197.835938 177.160156 206.214844 187.496094 206.214844 Z M 187.496094 206.214844 " fill-opacity="1" fill-rule="nonzero"/></svg>